<svg width="365" height="507" viewBox="0 0 365 507" fill="none" xmlns="http://www.w3.org/2000/svg">
<path fill-rule="evenodd" clip-rule="evenodd" d="M256.973 120.912C256.746 126.601 256.087 131.643 255.406 136.856L255.294 137.71C254.575 143.228 253.376 148.745 252.177 154.263L252.177 154.263L252.176 154.268C249.777 165.306 246.659 176.105 242.341 186.904L240.662 190.983L240.182 191.943L239.943 192.423C239.943 192.522 239.902 192.58 239.853 192.649C239.785 192.745 239.703 192.862 239.703 193.143C239.223 194.343 238.504 195.542 237.304 196.742C236.345 197.942 234.906 198.902 233.467 199.861L233.466 199.862C232.027 200.582 230.348 201.062 228.909 201.302C226.031 201.542 223.632 201.062 221.713 200.582C217.875 199.382 215.237 197.702 212.598 195.782C209.96 194.103 207.802 192.184 205.643 190.264L205.642 190.263C197.172 182.496 190.318 174.266 183.947 165.349C179.155 163.645 175.179 159.547 175.179 159.547L180.654 142.401L175.179 159.307L162.946 151.868L166.544 137.23L180.696 142.269L180.696 142.27L190.29 157.387L190.235 159.311L190.531 159.067C192.45 160.867 194.428 162.667 196.407 164.466C198.386 166.266 200.365 168.066 202.284 169.866C206.361 173.465 210.438 176.584 214.516 179.703L214.516 179.703L214.517 179.704C215.143 180.122 215.748 180.539 216.345 180.95C217.808 181.959 219.22 182.932 220.754 183.784C222.433 184.834 224.297 185.517 225.701 185.993L226.031 185.224L227.47 181.624C230.828 172.025 233.466 161.947 235.385 151.628C235.901 148.921 236.347 146.144 236.798 143.336C237.187 140.916 237.58 138.473 238.024 136.03C238.743 130.991 239.463 125.471 239.703 120.672L256.973 120.912ZM226.658 186.278C227.069 186.334 227.18 186.184 226.99 186.184C226.924 186.184 226.803 186.22 226.658 186.278Z" fill="url(#paint0_linear_480_658)"/>
<path d="M248.202 98.764C241.006 100.684 235.729 130.68 235.729 130.68L255.877 144.358C255.877 144.358 275.066 114.122 269.55 105.963C263.553 97.5642 258.756 95.8844 248.202 98.764Z" fill="#FFEDBA"/>
<path opacity="0.3" d="M248.682 105.483L243.165 135.719L254.439 143.398L248.682 105.483Z" fill="#ED6B57"/>
<path d="M290.045 478.756H266.341L265.06 438.563H288.443L290.045 478.756Z" fill="#FFC3BD"/>
<path d="M266.088 476.583H290.031C290.897 476.583 291.474 477.178 291.762 478.071L294.358 497.702C294.647 499.784 292.916 501.568 290.897 501.568C282.531 501.568 278.492 500.974 268.108 500.974C261.761 500.974 248.203 501.568 239.261 501.568C230.607 501.568 229.741 492.348 233.491 491.753C250.223 488.184 256.857 482.83 262.338 478.071C263.492 477.178 264.934 476.583 266.088 476.583Z" fill="#14365B"/>
<path d="M265.06 439.649L265.689 454.857H288.958L288.015 439.649H265.06Z" fill="#F29994"/>
<path d="M262.886 448.635C262.886 448.635 248.877 324.571 247.678 268.418C247.289 250.228 249.739 224.966 252.023 207.722H290.044L287.541 268.418C285.382 323.611 290.044 448.635 290.044 448.635H262.886Z" fill="url(#paint1_linear_480_658)"/>
<path d="M253.135 98.2464C253.135 98.2464 250.079 107.936 249.333 116.427C248.511 125.788 239.531 142.543 244.74 152.32C256.912 168.071 250.847 192.149 253.135 206.341C281.679 206.341 311.182 206.341 325.095 206.341C323.895 177.065 323.895 159.067 337.807 98.8347C337.807 98.8347 322.696 95.4752 307.345 94.7553C295.351 94.2754 285.277 93.7954 274.723 94.7553C260.571 95.9552 253.135 98.2464 253.135 98.2464Z" fill="#FFEDBA"/>
<path d="M303.987 57.8C301.828 68.3587 299.909 87.5562 307.105 94.5153C307.105 94.5153 304.226 105.074 284.797 105.074C263.21 105.074 274.483 94.5153 274.483 94.5153C286.237 91.6357 285.997 82.9968 283.838 74.8378L303.987 57.8Z" fill="url(#paint2_linear_480_658)"/>
<path d="M295.831 64.7591L284.078 74.8378C284.558 76.7575 285.037 78.6774 285.037 80.5971C289.595 79.8772 295.592 75.0778 296.071 70.2784C296.311 68.1186 296.311 65.9589 295.831 64.7591Z" fill="#F29994"/>
<path d="M267.413 49.1497C259.716 37.6033 262.144 26.9275 267.413 20.971H288.032C288.719 30.1348 290.094 49.4246 290.094 53.2734C290.094 57.1222 309.796 50.5242 307.963 54.6479C303.381 53.7316 275.111 60.696 267.413 49.1497Z" fill="#0F264C"/>
<path d="M315.021 38.6024C310.943 55.6403 309.504 63.0793 299.19 70.2784C283.599 81.317 263.69 72.4381 262.491 54.4404C261.531 38.3624 268.487 12.9256 286.477 9.08608C304.707 5.48653 319.339 21.5646 315.021 38.6024Z" fill="url(#paint3_linear_480_658)"/>
<path d="M294.025 450.512H260.067L257.455 439.701L295.476 438.563L294.025 450.512Z" fill="#4B2A2A"/>
<path d="M284.079 240.177C276.105 256.132 278.976 281.302 280.268 302.774C281.853 329.099 283.282 351.504 286.717 364.721C289.835 328.485 295.352 284.091 299.43 251.695C297.031 233.218 292.234 223.859 284.079 240.177Z" fill="#EE4D47" fill-opacity="0.29" style="mix-blend-mode:multiply"/>
<path d="M356.853 446.167L334.041 353.83V263.124L327.318 208.265H286.581C281.801 238.682 292.399 321.965 300.908 365.237L327.318 446.167H356.853Z" fill="url(#paint4_linear_480_658)"/>
<path d="M340.015 479.299L333.497 453.228H356.31L360.112 479.299H340.015Z" fill="#FFC3BD"/>
<path d="M331.383 490.588L339.227 478.756H359.957C362.519 480.291 363.684 489.895 364.442 496.341C364.737 498.851 363.175 501.254 360.746 501.951L343.149 507H317.691C315.633 507 313.976 505.311 314.015 503.253C314.015 495.904 326.126 491.201 331.383 490.588Z" fill="#14365B"/>
<path fill-rule="evenodd" clip-rule="evenodd" d="M356.864 457.03L356.31 453.228H333.497L334.448 457.03H356.864Z" fill="#F29994"/>
<path d="M361.376 453.771H327.419L324.807 442.96L362.827 441.821L361.376 453.771Z" fill="#4B2A2A"/>
<circle r="20.6185" transform="matrix(1 0 0 -1 325.146 34.0294)" fill="#0F264C"/>
<path d="M287.965 38.5812C288.219 37.1457 287.685 35.8509 286.772 35.6891C285.859 35.5273 284.913 36.5598 284.658 37.9953C284.404 39.4309 284.938 40.7259 285.852 40.8876C286.765 41.0494 287.711 40.0168 287.965 38.5812Z" fill="#0F264C"/>
<path d="M272.084 35.9628C271.844 37.4026 270.885 38.3625 269.925 38.1225C268.966 37.8825 268.486 36.6826 268.726 35.2428C268.966 33.803 269.926 32.8431 270.885 33.0831C271.844 33.323 272.324 34.5229 272.084 35.9628Z" fill="#0F264C"/>
<path d="M271.365 33.3231L268.247 31.6433C268.007 31.6433 269.446 34.5229 271.365 33.3231Z" fill="#0F264C"/>
<path d="M275.922 39.0823C275.922 39.0823 272.564 44.6016 269.206 47.2412C270.645 49.401 274.003 49.161 274.003 49.161L275.922 39.0823Z" fill="#ED847E"/>
<path d="M282.124 57.2679C281.065 57.2679 280.006 57.268 278.594 56.9231C278.241 56.9231 277.888 56.5782 278.241 56.2333C278.241 55.8885 278.594 55.5436 278.947 55.8885C288.124 57.6128 293.419 52.095 293.419 52.095C293.772 51.7501 294.125 51.7501 294.125 52.095C294.478 52.4398 294.478 52.7847 294.125 52.7847C294.125 52.7847 289.889 57.2679 282.124 57.2679Z" fill="#0F264C"/>
<path d="M324.39 23.3554C332.384 42.4111 315.964 52.157 306.754 54.6479L315.572 37.367L313.808 28.0259C305.775 23.044 291.823 12.8934 300.288 12.1461C310.869 11.212 321.45 16.3496 324.39 23.3554Z" fill="#D3D86C"/>
<path d="M287.436 7.88633C279.52 12.4457 298.949 55.4003 313.341 49.401C327.733 43.4018 322.936 19.4049 315.98 13.4057C308.784 7.16647 298.469 1.40716 287.436 7.88633Z" fill="#0F264C"/>
<path d="M321.708 23.0329C331.055 51.0741 311.857 65.4154 301.09 69.0809L311.399 43.6514L309.337 29.9057C299.944 22.5747 283.633 7.63773 293.529 6.53808C305.901 5.16351 318.272 12.7236 321.708 23.0329Z" fill="#0F264C"/>
<path d="M282.879 5.72659C282.879 5.72659 273.284 7.16641 267.048 18.9249C260.571 30.9234 297.271 7.40638 291.993 5.72659C286.956 4.0468 282.879 5.72659 282.879 5.72659Z" fill="#0F264C"/>
<path d="M315.741 51.5607C314.301 54.9203 311.663 57.32 308.785 58.5198C304.707 60.1996 302.068 56.6001 302.788 52.2806C303.508 48.4411 306.386 43.1618 310.943 43.1618C315.261 43.1618 317.42 47.4813 315.741 51.5607Z" fill="url(#paint5_linear_480_658)"/>
<path fill-rule="evenodd" clip-rule="evenodd" d="M345.482 117.552C349.56 127.151 352.678 136.75 355.557 146.589C358.435 156.427 360.834 166.506 362.033 177.065C362.273 179.704 362.513 182.344 362.753 185.224V187.384C362.753 187.418 362.757 187.486 362.764 187.584C362.806 188.172 362.924 189.817 362.513 191.463C362.273 192.423 361.793 193.623 361.074 194.583C360.354 195.783 359.395 196.742 358.435 197.462C356.276 198.902 354.357 199.382 352.918 199.622C351.924 199.788 351.045 199.725 350.28 199.67H350.28C349.937 199.645 349.617 199.622 349.32 199.622C348.87 199.509 348.42 199.45 347.995 199.393L347.995 199.393C347.514 199.329 347.064 199.27 346.682 199.142C345.003 198.662 343.563 198.182 342.364 197.702C339.726 196.502 337.327 195.303 334.928 194.103C325.813 188.823 317.658 182.824 309.983 176.105L310.104 175.926C306.843 174.267 304.265 171.164 302.833 169.147L291.753 156.907L298.949 143.469L311.182 151.868L311.182 151.868L317.037 169.677L318.26 170.29C325.864 174.107 333.606 177.994 341.165 181.144C342.672 181.815 344.18 182.368 345.606 182.804C345.467 181.913 345.337 181.031 345.243 180.184C344.523 175.626 343.324 171.068 342.125 166.509L342.124 166.506C341.525 164.226 340.865 161.887 340.205 159.547L340.205 159.547C339.546 157.207 338.886 154.868 338.286 152.588C335.408 143.469 332.05 134.11 328.692 125.231L345.482 117.552Z" fill="#FFC3BD"/>
<path d="M292.473 29.4836C292.233 29.4836 291.993 29.4836 291.753 29.2436C289.115 26.6039 286.236 27.0838 285.997 27.0838C285.517 27.0838 285.037 26.8439 285.037 26.3639C285.037 25.884 285.277 25.4041 285.757 25.4041C285.997 25.4041 289.834 24.6841 292.953 28.0437C293.192 28.2837 293.192 29.0036 292.953 29.2436C292.713 29.4836 292.713 29.4836 292.473 29.4836Z" fill="#0F264C"/>
<path d="M266.328 27.3238C266.088 27.3238 265.848 27.3238 265.848 27.0838C265.608 26.8438 265.608 26.1239 265.848 25.884C268.966 22.5244 272.804 23.2443 273.044 23.2443C273.524 23.2443 273.763 23.7243 273.763 24.2042C273.763 24.6842 273.284 24.9241 272.804 24.9241C272.564 24.9241 269.686 24.4442 267.047 27.0838C266.807 27.3238 266.567 27.3238 266.328 27.3238Z" fill="#0F264C"/>
<path d="M337.807 98.5948C345.003 100.755 353.639 125.711 353.639 125.711L325.574 145.629C325.574 145.629 315.26 124.991 318.378 115.633C321.736 106.034 329.652 96.1951 337.807 98.5948Z" fill="#FFEDBA"/>
<path d="M254.432 478.756C251.457 478.756 248.481 478.322 246.781 476.585C245.931 475.717 245.506 474.414 245.506 472.677C245.506 471.809 245.931 470.94 246.781 470.506C250.607 468.335 262.934 474.848 264.634 475.717C265.06 475.717 265.059 476.151 265.059 476.585C265.059 477.019 264.634 477.019 264.634 477.019C261.659 478.322 257.833 478.756 254.432 478.756ZM248.906 472.243C248.481 472.243 248.056 472.243 247.631 472.677C247.206 472.677 247.206 473.111 247.206 473.546C247.206 474.414 247.206 475.282 248.056 476.151C249.757 477.887 255.283 478.322 262.084 477.019C257.408 474.414 251.882 472.243 248.906 472.243Z" fill="#9FC6FF"/>
<path d="M264.206 477.67C259.945 476.09 252.701 469.769 253.127 466.609C253.127 465.819 253.98 465.029 256.11 464.634C257.815 464.634 259.093 465.029 260.372 465.819C264.207 468.979 265.059 476.88 265.059 476.88C265.059 477.275 265.059 477.275 264.633 477.67H264.206ZM256.536 465.819H256.11C254.832 465.819 254.832 466.609 254.832 466.609C254.406 468.584 259.519 473.719 263.354 475.695C262.928 473.324 262.076 468.584 259.519 466.609C258.667 466.214 257.815 465.819 256.536 465.819Z" fill="#9FC6FF"/>
<path d="M334.406 481.921C332.074 480.207 329.992 478.153 329.66 475.813C329.494 474.643 329.911 473.377 330.911 472.016C331.411 471.335 332.244 470.9 333.161 471.049C337.409 471.551 343.319 483.754 344.152 485.414C344.485 485.659 344.235 485.999 343.985 486.339C343.735 486.679 343.402 486.435 343.402 486.435C340.32 485.742 337.071 483.879 334.406 481.921ZM333.826 473.634C333.493 473.389 333.16 473.145 332.577 473.24C332.244 472.995 331.993 473.335 331.743 473.676C331.243 474.356 330.743 475.037 330.91 476.207C331.242 478.547 335.323 482.07 341.403 484.966C339.239 480.231 336.158 475.348 333.826 473.634Z" fill="#9FC6FF"/>
<path d="M342.692 486.698C340.262 483.006 338.225 473.881 340.379 471.65C340.834 471.031 341.957 470.902 343.854 471.82C345.19 472.801 345.964 473.847 346.511 475.202C347.697 479.888 343.815 486.57 343.815 486.57C343.587 486.88 343.587 486.88 343.026 486.944L342.692 486.698ZM343.505 472.994L343.171 472.749C342.169 472.012 341.714 472.631 341.714 472.631C340.243 473.934 341.293 480.903 343.161 484.66C344.192 482.557 346.254 478.351 345.388 475.331C344.948 474.53 344.507 473.73 343.505 472.994Z" fill="#9FC6FF"/>
<path d="M326.054 202.022L327.973 208.501C328.213 208.981 327.733 209.461 326.773 209.461H252.655C251.936 209.461 251.456 209.221 251.456 208.741L250.736 202.262C250.736 201.782 251.216 201.542 251.936 201.542H324.855C325.574 201.302 326.054 201.542 326.054 202.022Z" fill="#F18069"/>
<path d="M316.459 210.181H318.378C318.858 210.181 319.098 209.941 319.098 209.701L318.138 201.302C318.138 201.062 317.659 200.822 317.419 200.822H315.5C315.02 200.822 314.78 201.062 314.78 201.302L315.74 209.701C315.74 209.941 315.98 210.181 316.459 210.181Z" fill="#6A2828"/>
<path d="M258.173 210.181H260.092C260.572 210.181 260.812 209.941 260.812 209.701L259.852 201.302C259.852 201.062 259.372 200.822 259.133 200.822H257.214C256.734 200.822 256.494 201.062 256.494 201.302L257.453 209.701C257.453 209.941 257.933 210.181 258.173 210.181Z" fill="#6A2828"/>
<path d="M287.196 210.181H289.115C289.594 210.181 289.834 209.941 289.834 209.701L288.875 201.302C288.875 201.062 288.395 200.822 288.155 200.822H286.236C285.756 200.822 285.517 201.062 285.517 201.302L286.476 209.701C286.476 209.941 286.956 210.181 287.196 210.181Z" fill="#6A2828"/>
<path d="M287.196 35.9627L284.078 34.2828C284.078 34.5228 285.277 37.4026 287.196 35.9627Z" fill="#0F264C"/>
<path d="M119.379 34.1058H101.274L98.8223 23.1627C98.8223 23.1627 105.989 27.3136 107.686 24.4835C109.383 21.6533 109.006 22.7854 110.704 23.1627C112.401 23.5401 112.401 21.276 114.475 22.5967C116.739 24.1061 120.133 31.2757 119.379 34.1058Z" fill="#6B1912"/>
<path d="M100.709 483.718L122.963 481.831L121.831 454.285L99.3887 456.36L100.709 483.718Z" fill="#D88D6C"/>
<path d="M142.199 479.944C142.199 479.944 127.489 473.152 125.037 468.247C125.037 468.247 120.699 452.398 114.099 460.7C114.099 460.7 107.309 466.171 97.6911 461.832L96.5596 491.831L163.133 491.642C161.435 487.114 159.927 482.02 142.199 479.944Z" fill="url(#paint6_linear_480_658)"/>
<path d="M96.5598 492.02L96.1826 496.736L163.321 496.548C163.321 494.661 163.887 493.718 162.944 491.831L96.5598 492.02Z" fill="#C73E39"/>
<path d="M3.20605 479.944L25.4601 483.718L31.3064 456.926L9.24106 453.153L3.20605 479.944Z" fill="#D88D6C"/>
<path d="M46.0161 479.944C46.0161 479.944 31.3059 473.152 28.8542 468.247C28.8542 468.247 32.2489 455.794 24.328 462.02C24.328 462.02 10.7494 467.115 5.09163 460.888L0.56543 492.02L67.1384 491.831C65.0639 487.114 63.5552 482.02 46.0161 479.944Z" fill="url(#paint7_linear_480_658)"/>
<path d="M0.37715 492.02L0 496.737L67.1388 496.548C67.1388 494.661 67.7046 493.718 66.7617 491.831L0.37715 492.02Z" fill="#C73E39"/>
<path d="M126.734 224.101C126.734 224.101 130.695 337.495 127.111 466.36C127.111 466.36 116.362 476.548 95.9936 469.756C95.9936 469.756 96.1821 326.363 90.7129 269.383C90.7129 269.383 65.0644 377.683 32.6265 471.454C32.6265 471.454 10.9383 475.605 3.20605 463.341C3.20605 463.341 46.9595 311.458 53.3717 224.101H126.734Z" fill="url(#paint8_linear_480_658)"/>
<path d="M126.734 224.101H53.3714C52.8056 230.705 52.2398 237.686 51.2969 244.856C95.0503 245.044 118.247 233.913 126.922 228.818C126.922 225.611 126.734 224.101 126.734 224.101Z" fill="#402B2B" fill-opacity="0.45" style="mix-blend-mode:multiply"/>
<path d="M166.716 145.235C146.537 109.576 130.695 97.5006 130.695 97.5006C122.02 102.406 128.62 135.99 128.62 135.99C134.09 146.745 137.861 156.367 145.971 165.801L166.716 145.235Z" fill="#D1402C"/>
<path d="M130.694 97.5006C130.694 97.5006 129.751 119.198 126.923 223.535C126.923 223.535 101.274 236.554 50.1654 227.498C50.1654 227.498 49.9768 196.178 42.9989 168.442C42.9989 168.442 29.986 116.179 36.5868 100.897C36.5868 100.897 78.2657 75.0483 130.694 97.5006Z" fill="url(#paint9_linear_480_658)"/>
<path d="M91.0901 76.8214L91.4673 90.331C91.4673 90.331 88.2612 95.0478 80.529 95.6138C72.7967 95.9912 69.0249 91.6516 69.0249 91.6516L68.2705 71.5386C77.8887 75.6894 87.3183 77.3875 91.0901 76.8214Z" fill="url(#paint10_linear_480_658)"/>
<path d="M90.3361 71.2748L91.0904 86.1801C87.3186 86.7461 77.8889 85.0481 68.4593 80.8972L67.8936 71.2748H90.3361Z" fill="url(#paint11_linear_480_658)" style="mix-blend-mode:multiply"/>
<path d="M39.2275 130.33C39.2275 130.33 50.3544 155.424 54.3148 166.744C58.2753 177.876 58.2753 222.215 79.0205 230.705C79.0205 230.705 56.9552 229.384 49.9772 227.498C49.9772 227.498 49.6 194.102 42.8107 168.442C42.8107 168.442 38.0959 141.462 36.21 129.198L39.2275 130.33Z" fill="#EE4D47" fill-opacity="0.29" style="mix-blend-mode:multiply"/>
<path d="M53.9375 38.4454C54.3147 38.6341 54.6919 44.6716 54.6919 44.6716L56.2006 57.3128L63.1786 62.7844L67.139 64.4824C67.139 64.4824 72.9854 62.0297 72.231 59.7656C71.4766 57.6902 67.7048 27.8796 66.9504 27.8796C66.1961 27.8796 60.1611 32.2191 60.1611 32.2191L53.9375 38.4454Z" fill="#402B2B"/>
<path d="M109.195 27.1249C110.892 27.1249 108.252 47.8792 108.252 47.8792L105.235 39.5775L103.16 29.5777L109.195 27.1249Z" fill="#402B2B"/>
<path d="M106.366 31.2757L109.572 57.8789C109.572 57.8789 110.704 80.3312 92.2219 81.6519C73.7399 82.784 61.1042 64.4825 61.1042 64.4825C61.1042 64.4825 58.8411 67.124 56.3894 62.5958C54.1263 58.0676 55.635 52.03 58.8411 51.464C62.2357 51.0866 63.7445 52.9733 64.1217 55.8035C64.4989 58.6336 64.8761 60.709 64.8761 60.709L67.7049 60.3317L65.6304 38.4454C65.6304 38.4454 69.968 29.9551 74.8714 28.257C79.7748 26.5589 84.1124 33.3512 84.1124 33.3512C84.1124 33.3512 88.6387 34.2946 92.9763 33.3512C97.3139 32.4078 100.143 31.2757 100.143 31.2757C100.143 31.2757 102.783 32.0304 106.366 31.2757Z" fill="url(#paint12_linear_480_658)"/>
<path d="M92.976 71.4635C86.7525 71.8408 85.8096 64.6712 85.8096 64.6712C85.8096 64.6712 100.142 62.9732 100.52 62.7845C100.52 62.7845 101.651 70.8975 92.976 71.4635Z" fill="#893D43"/>
<path d="M86.3755 66.9353C85.8097 65.6146 85.6211 64.6712 85.6211 64.6712C85.6211 64.6712 99.9541 62.9732 100.331 62.7845C100.331 62.7845 100.52 63.7278 100.331 65.2372L86.3755 66.9353Z" fill="#FFFEFF"/>
<path d="M86.9419 24.4835V5.2386C75.4378 5.80463 63.5565 8.0687 57.7101 15.2383C50.7322 23.7287 54.6927 43.3509 54.6927 43.3509C54.6927 43.3509 63.1793 42.4076 64.688 39.5774C66.1968 36.7473 80.5298 32.7851 91.4682 33.3511C102.407 33.9172 107.687 32.7851 113.156 28.0683C114.288 27.1249 115.231 25.8042 115.985 24.2948H86.9419V24.4835Z" fill="#402B2B"/>
<path d="M53.3716 36.1812C53.3716 36.1812 61.4811 33.5398 75.0597 32.4077C97.8794 22.7853 107.686 24.4834 107.686 24.4834C107.686 24.4834 107.498 17.1251 105.423 12.0309C103.349 6.93667 89.3927 -0.232967 77.7 0.899082C66.0073 2.03113 53.9373 10.7101 52.0514 19.0118C50.5427 25.4268 53.3716 36.1812 53.3716 36.1812Z" fill="url(#paint13_linear_480_658)"/>
<path d="M67.1387 33.3511C69.5904 21.6533 87.1295 15.8044 99.5766 15.9931C111.835 16.1817 120.51 26.3702 121.83 33.3511C122.396 36.1813 120.133 36.5586 119.379 34.1058C118.813 32.4078 117.681 24.2948 106.366 25.2381C95.0504 26.1815 95.6161 36.37 89.9584 37.3133C84.6778 38.2567 78.6428 34.4832 67.1387 33.3511Z" fill="url(#paint14_linear_480_658)"/>
<path d="M105.046 35.9926V34.6719C104.48 34.6719 100.143 34.1058 94.8623 35.2379L95.0509 37.3133C99.3885 35.9926 105.046 35.9926 105.046 35.9926Z" fill="#402B2B"/>
<path d="M73.1743 40.7095C76.5689 38.8227 82.9811 37.8794 82.9811 37.6907L82.2267 35.8039C82.0381 35.8039 76.1918 36.9359 72.4199 39.3888L73.1743 40.7095Z" fill="#402B2B"/>
<path d="M92.0332 47.1245C92.0332 47.1245 92.599 51.0866 94.1078 52.2187C95.6165 53.3507 98.2568 54.2941 98.634 55.2375C99.0112 55.9922 98.2568 57.5016 96.5595 58.0676C94.8621 58.6337 94.6735 59.1997 94.6735 59.1997C94.6735 59.1997 98.0682 59.5771 99.7656 57.5016C101.463 55.4262 99.577 53.7281 97.8796 52.7848C96.1823 51.8414 95.4279 51.464 94.6735 50.898C93.7305 50.332 92.0332 47.1245 92.0332 47.1245Z" fill="#D87C60"/>
<path d="M83.9236 49.1999C83.9236 51.0866 82.6035 52.7847 80.9062 52.7847C79.2088 52.7847 77.8887 51.2753 77.8887 49.1999C77.8887 47.3131 79.2088 45.615 80.9062 45.615C82.6035 45.615 83.9236 47.1244 83.9236 49.1999Z" fill="#402B2B"/>
<path d="M104.669 46.7471C104.669 48.6339 103.349 50.3319 101.651 50.3319C99.9539 50.3319 98.6338 48.8225 98.6338 46.7471C98.6338 44.8604 99.9539 43.1623 101.651 43.1623C103.349 43.351 104.669 44.8604 104.669 46.7471Z" fill="#402B2B"/>
<path d="M197.079 97.3119H80.5293V187.31H197.079V97.3119Z" fill="#8C5E5E"/>
<path d="M197.267 97.3119H154.834V187.31H197.267V97.3119Z" fill="#694646"/>
<path d="M182.746 97.3119H171.808V109.764H182.746V97.3119Z" fill="#A3774A"/>
<path d="M120.134 97.3119H109.195V109.764H120.134V97.3119Z" fill="#A3774A"/>
<path d="M197.268 163.537C197.268 163.537 191.233 167.499 189.536 169.197C187.838 170.895 184.821 187.121 187.838 188.819C190.856 190.517 196.702 188.819 198.588 189.196C200.663 189.574 206.697 185.8 206.697 182.782C206.697 179.763 202.926 159.763 201.983 159.386C201.04 159.009 197.268 156.556 197.268 156.556V163.537Z" fill="#F4A984"/>
<path d="M121.453 162.216H85.0547V179.951H121.453V162.216Z" fill="white"/>
<path fill-rule="evenodd" clip-rule="evenodd" d="M49.2225 185.234C35.4552 165.235 33.5693 104.67 33.5693 104.67C52.4286 107.123 65.0643 132.405 65.0643 132.594L67.8932 168.82L116.024 176.532L118.625 174.103C118.625 174.103 129.752 168.442 138.804 169.386C138.804 169.386 142.953 170.141 142.01 172.593C141.633 173.914 142.388 174.763 143.142 175.612C143.896 176.461 144.651 177.31 144.274 178.631C143.955 179.745 144.241 180.591 144.522 181.423C144.908 182.563 145.284 183.678 144.085 185.423C144.085 185.423 145.594 187.687 143.896 189.763C143.819 189.857 143.738 189.956 143.653 190.061C141.862 192.256 138.367 196.538 137.107 196.178C136.633 196.042 135.529 195.858 134.289 195.652C132.074 195.283 129.428 194.842 129.186 194.479C128.809 193.913 128.432 192.781 130.318 191.649C130.318 191.649 128.243 192.215 125.603 191.838C122.963 191.649 119.191 189.574 119.191 189.574L118.49 188.99C65.5914 193.33 49.2225 185.234 49.2225 185.234Z" fill="url(#paint15_linear_480_658)"/>
<path d="M70.3449 160.141L65.0643 132.405C65.0643 132.405 55.4461 103.35 36.5869 100.897C36.5869 100.897 23.0082 109.387 39.7929 167.122L70.3449 160.141Z" fill="url(#paint16_linear_480_658)"/>
<defs>
<linearGradient id="paint0_linear_480_658" x1="261.207" y1="191.586" x2="255.873" y2="136.621" gradientUnits="userSpaceOnUse">
<stop stop-color="#FFB3B6"/>
<stop offset="1" stop-color="#FFC8C1"/>
</linearGradient>
<linearGradient id="paint1_linear_480_658" x1="266.717" y1="155.301" x2="266.717" y2="455.157" gradientUnits="userSpaceOnUse">
<stop stop-color="#F4A984"/>
<stop offset="1" stop-color="#EE4D47"/>
</linearGradient>
<linearGradient id="paint2_linear_480_658" x1="292.217" y1="99.0908" x2="292.437" y2="35.5086" gradientUnits="userSpaceOnUse">
<stop stop-color="#FFB3B6"/>
<stop offset="1" stop-color="#FFC8C1"/>
</linearGradient>
<linearGradient id="paint3_linear_480_658" x1="318.187" y1="67.0615" x2="311.862" y2="22.1955" gradientUnits="userSpaceOnUse">
<stop stop-color="#FFB3B6"/>
<stop offset="1" stop-color="#FFC8C1"/>
</linearGradient>
<linearGradient id="paint4_linear_480_658" x1="322.26" y1="157.09" x2="322.26" y2="449.818" gradientUnits="userSpaceOnUse">
<stop stop-color="#F4A984"/>
<stop offset="1" stop-color="#EE4D47"/>
</linearGradient>
<linearGradient id="paint5_linear_480_658" x1="316.925" y1="57.0288" x2="315.53" y2="46.362" gradientUnits="userSpaceOnUse">
<stop stop-color="#FFB3B6"/>
<stop offset="1" stop-color="#FFC8C1"/>
</linearGradient>
<linearGradient id="paint6_linear_480_658" x1="129.846" y1="464.091" x2="129.846" y2="492.749" gradientUnits="userSpaceOnUse">
<stop stop-color="#F4A984"/>
<stop offset="1" stop-color="#EE4D47"/>
</linearGradient>
<linearGradient id="paint7_linear_480_658" x1="33.8519" y1="453.771" x2="33.8519" y2="492.889" gradientUnits="userSpaceOnUse">
<stop stop-color="#F4A984"/>
<stop offset="1" stop-color="#EE4D47"/>
</linearGradient>
<linearGradient id="paint8_linear_480_658" x1="65.9088" y1="153.949" x2="65.9088" y2="472.13" gradientUnits="userSpaceOnUse">
<stop stop-color="#822626"/>
<stop offset="0.943497" stop-color="#402B2B"/>
</linearGradient>
<linearGradient id="paint9_linear_480_658" x1="82.7066" y1="55.3772" x2="82.7066" y2="234.6" gradientUnits="userSpaceOnUse">
<stop stop-color="#F4A984"/>
<stop offset="1" stop-color="#EE4D47"/>
</linearGradient>
<linearGradient id="paint10_linear_480_658" x1="72.1405" y1="89.358" x2="91.2254" y2="97.589" gradientUnits="userSpaceOnUse">
<stop stop-color="#FFB3B6"/>
<stop offset="1" stop-color="#FFC8C1"/>
</linearGradient>
<linearGradient id="paint11_linear_480_658" x1="71.7636" y1="79.8913" x2="90.9563" y2="88.0193" gradientUnits="userSpaceOnUse">
<stop stop-color="#FFB3B6" stop-opacity="0.31"/>
<stop offset="1" stop-color="#FFC8C1"/>
</linearGradient>
<linearGradient id="paint12_linear_480_658" x1="112.03" y1="75.192" x2="107.948" y2="38.7142" gradientUnits="userSpaceOnUse">
<stop stop-color="#FFB3B6"/>
<stop offset="1" stop-color="#FFC8C1"/>
</linearGradient>
<linearGradient id="paint13_linear_480_658" x1="79.6473" y1="-18.2306" x2="79.6473" y2="36.628" gradientUnits="userSpaceOnUse">
<stop stop-color="#F4A984"/>
<stop offset="1" stop-color="#EE4D47"/>
</linearGradient>
<linearGradient id="paint14_linear_480_658" x1="78.2142" y1="10.5566" x2="78.2142" y2="67.5878" gradientUnits="userSpaceOnUse">
<stop stop-color="#F4A984"/>
<stop offset="1" stop-color="#EE4D47"/>
</linearGradient>
<linearGradient id="paint15_linear_480_658" x1="52.1428" y1="157.208" x2="149.911" y2="189.798" gradientUnits="userSpaceOnUse">
<stop stop-color="#FFB3B6"/>
<stop offset="1" stop-color="#FFC8C1"/>
</linearGradient>
<linearGradient id="paint16_linear_480_658" x1="50.8726" y1="81.7098" x2="50.8726" y2="149.604" gradientUnits="userSpaceOnUse">
<stop stop-color="#F4A984"/>
<stop offset="1" stop-color="#EE4D47"/>
</linearGradient>
</defs>
</svg>
