<svg width="603" height="395" viewBox="0 0 603 395" fill="none" xmlns="http://www.w3.org/2000/svg">
<path d="M23.5576 327.493C23.5576 364.314 44.7634 394.064 70.8441 394.064H118.131C144.211 394.064 165.173 364.07 165.173 327.493C165.173 290.671 143.968 260.921 117.887 260.921C117.399 260.921 117.156 260.921 116.668 260.921H70.8441C44.5197 260.921 23.5576 290.915 23.5576 327.493Z" fill="#442B2B"/>
<path d="M394.05 326.761C394.05 363.583 415.256 393.332 441.336 393.332H488.623C514.704 393.332 535.666 363.339 535.666 326.761C535.666 289.939 514.46 260.189 488.379 260.189C487.892 260.189 487.648 260.189 487.16 260.189H441.336C415.012 260.189 394.05 289.939 394.05 326.761Z" fill="#402B2B"/>
<path d="M20.3887 321.152L210.753 320.665L188.816 307.74L44.7631 307.984L20.3887 321.152Z" fill="#442B2B"/>
<path d="M-159.251 212.638L-159.007 334.808L-4.47298 334.564L44.7635 307.984L188.817 307.74L233.178 334.077L547.609 333.345C552.728 333.345 556.871 329.199 556.871 324.079L556.628 211.175L-159.251 212.638Z" fill="#822626"/>
<path d="M177.604 240.438L424.274 239.95L423.786 16.3381C423.786 7.31557 416.474 0 407.212 0L176.873 0.487733L177.604 240.438Z" fill="#EF5F53"/>
<path d="M-207.025 241.413L177.36 240.681L176.873 0.731659L-191.182 1.46318C-200.2 1.46318 -207.513 8.7787 -207.513 18.045L-207.025 241.413Z" fill="#F39476"/>
<path d="M362.851 326.761C362.851 363.583 341.889 393.332 315.808 393.332H268.765V370.898C251.459 370.898 237.322 351.146 237.322 326.761C237.322 302.376 251.216 282.624 268.522 282.624V260.189H315.564C341.645 260.433 362.607 290.183 362.851 326.761Z" fill="#402B2B"/>
<path d="M229.766 327.249C229.766 357.486 247.072 381.871 268.521 381.628C289.971 381.628 307.033 357.242 307.033 327.005C307.033 296.767 289.727 272.382 268.277 272.626C247.072 272.626 229.766 297.011 229.766 327.249Z" fill="#4B2A2A"/>
<path opacity="0.32" d="M268.521 363.095C282.658 363.095 293.87 347.001 293.87 327.005C293.87 307.009 282.414 291.159 268.277 291.159C254.14 291.159 242.928 307.253 242.928 327.249C242.928 347.244 254.384 363.095 268.521 363.095ZM268.521 305.79C276.808 305.79 283.633 315.3 283.633 327.005C283.633 338.71 276.808 348.464 268.521 348.464C260.234 348.464 253.409 338.953 253.409 327.249C253.409 315.3 259.99 305.79 268.521 305.79Z" fill="#E14841"/>
<path d="M268.521 393.576C294.602 393.576 315.564 363.582 315.564 327.005C315.564 290.427 294.358 260.433 268.277 260.433C242.196 260.433 221.234 290.427 221.234 327.005C221.234 363.582 242.684 393.82 268.521 393.576ZM268.277 272.626C289.727 272.626 307.033 297.011 307.033 327.005C307.033 357.242 289.97 381.627 268.521 381.627C247.071 381.627 229.765 357.242 229.765 327.248C229.765 297.011 247.071 272.626 268.277 272.626Z" fill="#402B2B"/>
<path opacity="0.32" d="M261.94 327.005C261.94 321.884 264.865 317.982 268.278 317.982C271.69 317.982 274.615 322.128 274.859 327.005C274.859 332.126 271.934 336.027 268.522 336.027C264.865 336.271 261.94 332.126 261.94 327.005Z" fill="#E14841"/>
<path d="M587.584 144.604C587.584 145.579 588.315 146.311 589.046 146.555C590.996 147.042 598.308 147.042 600.502 146.311C601.477 146.067 602.452 145.336 602.452 144.116C603.183 124.608 603.183 105.588 602.452 87.5428C602.452 86.3235 601.477 85.592 600.502 85.3481C598.065 84.6166 589.534 84.1289 586.852 85.1043C585.877 85.3481 585.146 86.3236 585.146 87.299C584.659 105.832 585.39 124.852 587.584 144.604Z" fill="#CD2827"/>
<path d="M575.64 161.917C575.883 161.917 576.127 161.917 576.615 161.674L593.189 153.383C597.089 151.432 599.527 147.53 599.527 143.141L599.283 81.9342C599.283 79.4956 597.333 77.5449 594.895 77.5449H549.315C548.096 77.5449 547.365 78.5202 547.365 79.4956C547.365 80.7149 548.34 81.4464 549.315 81.4464H594.895C595.139 81.4464 595.139 81.6903 595.139 81.6903L595.383 142.897C595.383 145.823 593.677 148.262 591.239 149.481L574.665 157.772C573.69 158.26 573.202 159.479 573.69 160.454C574.177 161.674 574.908 161.917 575.64 161.917Z" fill="#822626"/>
<path d="M210.753 239.95C210.753 239.95 217.091 239.95 226.841 239.95H265.596C294.602 239.95 301.427 254.337 319.22 289.695L375.525 289.451C375.525 289.451 375.525 285.306 375.525 278.234L590.508 277.747C591.483 259.946 593.433 223.856 593.433 189.716C593.433 188.497 593.433 187.522 593.433 186.302C593.433 176.548 591.727 165.819 588.802 155.09C577.346 113.147 548.34 68.5223 536.397 52.1842C532.497 46.8195 529.084 42.1864 526.159 38.0409C517.872 27.0676 512.266 21.459 501.785 21.459L241.222 22.1906C235.859 22.1906 230.984 25.8483 229.522 30.9692C207.097 113.391 210.51 176.061 210.753 239.95ZM430.368 51.2088C430.124 49.9896 431.099 49.0142 432.318 49.0142L511.535 48.7703C516.166 48.7703 520.797 51.2089 523.722 55.3543C554.677 97.5406 567.108 136.069 571.74 158.26L576.615 181.669C577.346 185.083 575.152 187.766 571.74 187.766H552.484C549.315 187.766 545.903 186.302 543.465 183.864L503.979 146.067C499.591 141.922 493.741 139.483 488.135 139.483H440.849L430.368 51.2088Z" fill="#CD2827"/>
<path d="M389.418 155.821C391.124 163.624 393.074 171.671 394.78 180.206C395.999 186.059 401.118 190.204 406.968 190.448C483.991 193.13 547.852 193.374 593.432 189.96C593.432 188.741 593.432 187.766 593.432 186.546C593.432 176.792 591.726 166.063 588.801 155.333L389.418 155.821Z" fill="#822626"/>
<path opacity="0.75" d="M247.072 49.2581L326.289 49.0142C330.92 49.0142 335.064 51.4527 337.257 55.5982C359.438 97.7845 364.069 136.313 364.069 158.503V181.913C364.069 185.327 361.388 188.01 357.976 188.01H338.72C335.551 188.01 332.382 186.546 330.432 184.108L298.746 146.311C295.089 142.165 289.971 139.483 284.365 139.727H237.078L244.634 51.4527C244.634 50.2334 245.609 49.2581 247.072 49.2581Z" fill="#402B2B"/>
<path d="M210.753 239.95C210.753 239.95 217.091 239.95 226.841 239.95H265.596C294.602 239.95 301.427 254.337 319.22 289.695L375.525 289.451C375.525 289.451 375.525 285.306 375.525 278.234L590.508 277.747C591.483 259.946 593.433 223.856 593.433 189.716C547.853 193.13 483.748 193.13 406.968 190.204C401.118 189.96 396 185.815 394.781 179.962C393.075 171.428 391.125 163.137 389.418 155.577C378.937 110.952 367.481 79.0079 352.369 44.381C351.151 41.6987 353.1 38.5286 356.025 38.5286L526.159 38.0409C517.872 27.0676 512.266 21.459 501.785 21.459L241.222 22.1906C235.859 22.1906 230.984 25.8483 229.522 30.9692C207.097 113.391 210.51 176.061 210.753 239.95ZM236.834 139.727L244.39 51.4527C244.39 50.2335 245.609 49.2581 246.828 49.2581L326.045 49.0142C330.676 49.0142 334.82 51.4527 337.013 55.5982C359.194 97.7845 363.825 136.313 363.825 158.503V181.913C363.825 185.327 361.144 188.009 357.732 188.009H338.476C335.307 188.009 332.138 186.546 330.188 184.108L298.502 146.311C294.845 142.165 289.727 139.483 284.121 139.727H236.834Z" fill="url(#paint0_linear_480_424)"/>
<path d="M220.26 233.61C220.26 237.267 223.185 239.95 226.841 239.95H265.596C294.602 239.95 301.427 254.337 319.22 289.695L375.525 289.452C375.525 289.452 375.525 285.306 375.525 278.234L375.282 179.475C375.282 130.461 366.507 99.4915 343.351 50.4774C339.939 43.1619 332.383 38.5287 324.339 38.5287L240.491 38.7725C238.541 38.7725 237.078 39.9918 236.591 41.6988C220.016 104.612 220.016 207.03 220.26 233.61ZM236.835 139.727L244.391 51.4528C244.391 50.2336 245.609 49.2582 246.828 49.2582L326.045 49.0143C330.676 49.0143 334.82 51.4528 337.014 55.5983C359.194 97.7846 363.826 136.313 363.826 158.503V181.913C363.826 185.327 361.144 188.009 357.732 188.009H338.476C335.307 188.009 332.139 186.546 330.189 184.108L298.502 146.311C294.846 142.165 289.727 139.483 284.121 139.727H236.835Z" fill="url(#paint1_linear_480_424)"/>
<path d="M247.559 52.1842L326.289 51.9404C329.701 51.9404 332.87 53.8912 334.576 56.8175C357.488 100.467 361.144 139.239 361.144 158.26V181.669C361.144 183.376 359.682 184.839 357.976 184.839H338.72C336.282 184.839 334.089 183.864 332.626 182.157L300.939 144.36C296.796 139.483 290.702 136.557 284.121 136.557H240.247L247.559 52.1842ZM247.072 49.2581C245.853 49.2581 244.634 50.2334 244.634 51.4527L237.078 139.727H284.365C289.971 139.727 295.089 142.165 298.746 146.311L330.432 184.108C332.382 186.546 335.551 188.01 338.72 188.01H357.976C361.388 188.01 364.069 185.327 364.069 181.913V158.503C364.069 136.313 359.438 97.7845 337.257 55.5982C335.064 51.4527 330.92 49.0142 326.289 49.0142L247.072 49.2581Z" fill="#822626"/>
<path opacity="0.4" d="M375.281 231.659V278.235L460.348 277.991C459.373 265.798 457.18 254.093 453.523 243.12C452.061 238.731 448.405 235.56 443.774 234.829C425.005 232.634 401.118 231.659 375.281 231.659ZM547.365 277.991H589.533C590.264 267.749 590.995 251.167 591.727 232.39C581.489 232.878 571.983 233.853 563.452 235.073C558.821 235.804 555.165 238.974 553.703 243.364C550.29 254.093 548.34 265.798 547.365 277.991Z" fill="#CD2827"/>
<path d="M375.525 325.054L572.715 324.566C586.121 324.566 597.089 313.593 597.089 300.181V296.036C597.089 292.134 593.921 289.208 590.264 289.208L375.769 289.695L375.525 325.054Z" fill="#EE4D47"/>
<path d="M339.207 325.054H375.525V289.696H319.707L325.801 314.325C327.263 320.665 332.869 325.054 339.207 325.054Z" fill="#CD2827"/>
<path d="M252.434 196.057C260.721 196.301 276.808 198.008 276.808 203.86C276.808 209.712 262.671 211.663 251.215 211.663C239.759 211.663 238.54 205.323 237.565 202.641C236.834 199.958 236.103 195.813 252.434 196.057Z" fill="#CD2827"/>
<path d="M253.165 202.397C249.265 202.397 245.122 201.177 243.172 199.227C244.634 198.495 246.828 197.764 250.241 197.764C256.578 197.764 266.815 198.495 272.178 200.934C271.446 201.421 269.496 202.397 266.328 202.397C262.428 202.397 257.309 202.397 253.165 202.397Z" fill="#9B1616"/>
<path d="M269.496 207.03C270.959 207.03 271.69 207.274 271.934 207.518C267.546 209.468 259.503 210.2 255.603 210.2C249.997 210.2 246.097 210.2 244.878 208.981C245.853 208.249 248.047 207.03 250.24 207.03C253.165 207.274 267.546 207.03 269.496 207.03Z" fill="#9B1616"/>
<path d="M375.525 278.478C375.525 285.55 375.525 289.695 375.525 289.695L589.777 289.208C589.777 289.208 590.021 285.062 590.508 277.991L375.525 278.478Z" fill="#822626"/>
<g opacity="0.2">
<path d="M467.904 229.22V275.796L539.809 275.552V228.976C539.809 223.368 534.69 218.979 528.353 218.979H479.117C473.023 219.222 467.904 223.856 467.904 229.22Z" fill="#822626"/>
</g>
<path d="M563.939 274.089H579.051C582.951 274.089 586.364 270.919 586.364 266.773V259.214C586.364 255.312 583.195 251.899 579.051 251.899H563.939C560.039 251.899 556.627 255.069 556.627 259.214V266.773C556.627 270.919 560.039 274.089 563.939 274.089Z" fill="white"/>
<path d="M420.861 274.577H435.973C439.873 274.577 443.286 271.407 443.286 267.261V259.702C443.286 255.8 440.117 252.386 435.973 252.386H420.861C416.961 252.386 413.549 255.556 413.549 259.702V267.261C413.549 271.163 416.718 274.577 420.861 274.577Z" fill="white"/>
<path d="M323.363 145.092C323.363 146.067 324.094 146.799 324.825 147.042C334.332 148.018 344.325 148.018 354.562 146.799C355.781 146.555 356.512 145.823 356.512 144.604C357.244 125.096 357.244 106.075 356.512 88.0304C356.512 86.8112 355.537 86.0796 354.562 85.8358C344.081 84.6165 333.6 84.6165 322.632 85.8358C321.657 86.0796 320.926 87.055 320.926 88.0304C320.194 106.319 321.169 125.34 323.363 145.092Z" fill="#CD2827"/>
<path d="M361.143 162.405C361.874 162.405 362.605 161.917 362.849 161.186C363.337 160.21 362.849 158.991 361.874 158.504L345.3 150.456C342.862 149.237 341.156 146.555 341.156 143.872L340.912 82.6656C340.912 82.4218 341.156 82.4218 341.156 82.4218H351.393C352.612 82.4218 353.343 81.4464 353.343 80.471C353.343 79.2517 352.368 78.5202 351.393 78.5202H341.156C338.718 78.5202 336.769 80.471 336.769 82.9095L337.012 144.116C337.012 148.506 339.45 152.407 343.35 154.358L359.924 162.405C360.656 162.405 360.899 162.405 361.143 162.405Z" fill="#822626"/>
<path d="M472.93 327.942L541.909 327.792L541.864 307.065L472.885 307.215L472.93 327.942Z" fill="white"/>
<path opacity="0.8" d="M351.9 45.1184C367.012 79.7453 378.225 111.69 388.949 156.315L588.333 155.827C576.877 113.884 547.871 69.2596 535.928 52.9216C532.028 47.5569 528.615 42.9237 525.69 38.7782L355.556 39.266C352.631 39.5098 350.681 42.436 351.9 45.1184Z" fill="#8E6362"/>
<defs>
<linearGradient id="paint0_linear_480_424" x1="401.931" y1="-40.6307" x2="401.931" y2="297.04" gradientUnits="userSpaceOnUse">
<stop stop-color="#F4A984"/>
<stop offset="1" stop-color="#EE4D47"/>
</linearGradient>
<linearGradient id="paint1_linear_480_424" x1="297.868" y1="-288.354" x2="297.868" y2="296.573" gradientUnits="userSpaceOnUse">
<stop stop-color="#F4A984"/>
<stop offset="0.560769" stop-color="#EE4D47"/>
</linearGradient>
</defs>
</svg>
